# xmcd
#
# Track frame offsets:
#	150
#	13418
#	29081
#	45098
#	61400
#	78306
#	93998
#	111207
#	126918
#	142592
#	153686
#	170006
#	189362
#	204276
#	219005
#
# Disc length: 3081 seconds
#
# Revision: 0
# Processed by: cddbd v1.5PL3 Copyright (c) Steve Scherf et al.
# Submitted via: dBpowerAMP V4.0
#
DISCID=c30c070f
DTITLE=George Strait - Karaoke In The Style Of George Strait
DYEAR=2003
DGENRE=Country
TTITLE0=Amarillo By Morning
TTITLE1=Does Ft. Worth Ever Cross Your Mind
TTITLE2=What's Going On In Your World
TTITLE3=Drinking Champange
TTITLE4=I Cross My Heart
TTITLE5=The Man In Love With You
TTITLE6=Adalida
TTITLE7=Check Yes Or No
TTITLE8=Carried Away
TTITLE9=Heartland
TTITLE10=I Just Want To Dance With You
TTITLE11=The Nerve
TTITLE12=Overnight Success
TTITLE13=Today My World Slipped Away
TTITLE14=We Really Shouldn't Be Doing This
EXTD=Karaoke in the Style of George Strait Volume 2
EXTT0=
EXTT1=
EXTT2=
EXTT3=
EXTT4=
EXTT5=
EXTT6=
EXTT7=
EXTT8=
EXTT9=
EXTT10=
EXTT11=
EXTT12=
EXTT13=
EXTT14=
PLAYORDER=
